<?xml version="1.0" encoding="utf-8"?>
<!-- Generator: Adobe Illustrator 25.0.1, SVG Export Plug-In . SVG Version: 6.00 Build 0)  -->
<svg version="1.1" xmlns="http://www.w3.org/2000/svg" xmlns:xlink="http://www.w3.org/1999/xlink" x="0px" y="0px"
	 viewBox="0 0 395.33 152.55" style="enable-background:new 0 0 395.33 152.55;" xml:space="preserve">
<style type="text/css">
	.st0{display:none;}
	.st1{display:inline;}
	.st2{fill-rule:evenodd;clip-rule:evenodd;fill:#FF0000;}
	.st3{fill-rule:evenodd;clip-rule:evenodd;}
	.st4{display:inline;fill-rule:evenodd;clip-rule:evenodd;fill:#1200DF;}
	.st5{font-family:'ScriptMTBold';}
	.st6{font-size:56.5142px;}
	.st7{clip-path:url(#SVGID_2_);}
	.st8{fill:#FFFFFF;}
	.st9{font-size:130.0155px;}
	.st10{display:none;fill-rule:evenodd;clip-rule:evenodd;fill:#1200DF;}
	.st11{fill:#FFF88A;}
</style>
<g id="Layer_1" class="st0">
	<g class="st1">
		<path class="st2" d="M139.76,88.21c-3.7,5.52-8.98,10.37-15.8,13.06c-3.51,1.38-8.44,2.22-12.24,0.91
			c-3.54-1.22-5.71-3.83-6.76-7.67c-0.47,0.18-0.75,0.64-1.1,1c-2.39,2.57-5.22,4.99-8.68,6.67c-4.27,2.06-9.94,2.36-13.61-0.55
			c-3.54-2.81-4.73-7.82-3.47-13.24c1.08-4.65,3.45-8.46,5.94-11.6c-1.06,0.55-1.83,1.55-2.74,2.37c-2.69,2.45-5.64,4.94-8.13,7.67
			c-1.55,5.94-4.28,11.05-7.21,15.71c-5.85,9.27-13.19,17.08-23.19,22.56c-4.67,2.56-11.18,5.26-17.9,4.75
			c-6.99-0.53-11.1-4.65-10.68-12.24c0.36-6.46,4.99-10.95,8.68-14.15C31.11,96.3,42.1,92.1,53.83,88.67
			c-7.59,0.84-15.34,0.17-19.54-3.29c-4.4-3.61-6.73-9.05-6.57-17.08c0.14-7.14,2.46-13.23,5.48-18.17
			c9.03-14.82,19.99-26.97,37.53-33.51c5.5-2.05,12.33-3.68,19.09-4.57c7.15-0.93,15.01-1.09,20.82,1.55
			c-2.75,1.27-4.55,3.79-6.3,6.12c-5.28,7.02-9.89,15.06-14.15,23.1c-2.88,5.43-5.57,10.99-8.13,16.71
			c-2.57,5.76-5.2,11.74-6.21,18.63c3.12-1.71,5.51-4.27,7.85-6.85c3.37-3.71,7.32-7.55,10.41-11.87c2.56-3.58,4.75-7.25,7.58-10.96
			c0.47-0.61,1.38-1.81,1.73-1.92c1.12-0.35,3.12,0,4.47,0c4.5,0,8.85-0.15,13.33-0.09c0.15,0.35-0.42,0.76-0.73,1.19
			c-4.66,6.42-9.37,12.74-14.06,19.36c-3.55,5-7.75,10.2-10.14,16.71c-0.83,2.28-2.4,8.9,1.1,9.5c2.44,0.42,5.49-2.6,6.76-3.74
			c5.61-5.05,9.69-11.23,13.79-17.44c5.73-8.68,10.84-17.19,16.44-25.29c5.6-0.25,11.28-0.41,16.89-0.64
			c0.08,0.5-0.31,0.98-0.55,1.37c-6.41,10.65-13.56,20.97-20.36,31.32c-1.17,1.78-2.43,3.59-3.56,5.48
			c-1.13,1.87-2.53,3.89-2.56,6.39c1.07,1.24,2.66,0.86,3.84,0.55c3.49-0.92,6.51-3.65,8.77-5.75c3.34-3.1,6.28-7.06,8.22-11.14
			c6.17-12.96,13.88-25.05,22.74-35.52c5.83-6.89,12.11-13.74,20.18-18.63c3.43-2.08,9.67-5.12,14.79-2.56
			c1.21,0.6,2.28,1.56,2.83,2.65c2.34,4.65-0.83,11.25-2.56,14.61c-4.24,8.26-9.83,14.96-16.99,20.27
			c-1.69,1.25-3.61,2.43-5.84,3.47c-2.62,1.22-5.93,2.65-9.22,1.74c-4.4,4.21-7.42,9.63-10.5,15.43c-2.15,4.05-4.41,8.39-6.12,13.33
			c-0.33,0.97-1.44,4.53-0.09,5.11c1.1,0.48,3.08-1.22,4.02-1.92c8.11-6.03,15.8-12.51,22.74-19.45
			c8.03-8.03,15.34-17.31,22.19-26.03c5.49,0.14,11.11,0.15,16.71,0.18c0.09,0.53-0.46,0.92-0.73,1.28
			c-7.76,10.29-15.95,19.79-23.65,30.41c-1.25,1.72-2.5,3.5-3.74,5.66c-0.91,1.58-2.99,4.63-2.28,6.85
			c0.38,1.19,1.95,1.69,3.29,1.46c2.45-0.41,5.21-4.1,6.67-5.84c9.53-11.44,17.68-23.61,29.77-32.51c4.8-3.53,10.26-6.36,17.9-6.94
			c4.26-0.33,7.85,0.14,10.68,1.64c2.57,1.36,4.91,3.66,5.3,7.12c0.4,3.6-0.74,7.14-2.1,10.14c-1.43,3.14-2.95,5.47-4.66,7.76
			c-3.59,4.81-7.73,8.69-13.7,11.23c-6.63,2.83-14.64,1.68-19.18-2.37c-1.24,2.95-3.29,5.45-2.83,9.86
			c0.74,7.14,12.34,5.96,18.26,4.02c8.46-2.77,14.89-8.05,20.64-13.33c2.18-2,4.27-4.16,6.3-6.39c0.67-0.74,1.24-1.56,2.01-2.01
			c0.4,1.18,0.7,2.46,1.19,3.56c-2.1,2.37-4.51,4.53-6.85,6.76c-6.85,6.5-14.51,12.72-24.47,16.16c-6.62,2.29-16.84,3.02-23.65,0.73
			c-6.58-2.21-11.01-7.77-8.58-17.17c-4.93,6.44-9.84,14.64-19.36,17.26c-5.35,1.47-11.22,1.75-14.25-2.01
			c-2.69-3.35-3.59-10.06-0.55-14.15c0.02-0.07,0.09-0.09,0.09-0.18c-4.52,5.05-9.76,10.64-16.16,14.52
			c-2.08,1.26-4.69,2.65-7.58,2.65C140.92,103.19,139.99,95.36,139.76,88.21z M87.16,21.37c-0.02-0.07,0-0.18-0.09-0.18
			c-6.63,1.32-12.24,4.67-16.8,8.58c-4.35,3.73-8.45,8.39-11.96,13.06c-3.47,4.62-6.77,9.82-9.41,15.62
			c-1.23,2.72-2.58,5.9-3.01,9.5c-0.42,3.49-0.51,7.95,1.28,10.68c2.61,3.99,9.23,2.27,12.78-0.09
			C64.41,54.86,74.81,37.13,87.16,21.37z M186.97,48.76c3.51-2.99,7.53-6.63,8.4-11.23c0.16-0.83,0.59-4.08-0.82-3.38
			c-2.15,1.07-4.01,3.28-5.57,4.84c-3.54,3.54-6.83,7.22-10.04,10.87c-1.66,1.88-3.38,3.74-4.66,5.84
			C179.67,54.9,183.08,52.07,186.97,48.76z M235.46,75.7c5.64-0.49,9.5-5.92,11.51-10.68c0.89-2.11,2.64-6.63-0.82-6.21
			c-4.22,0.52-7.71,3.56-10.41,6.3c-2.78,2.82-5.2,5.99-6.76,9.04C230.88,74.95,232.58,75.95,235.46,75.7z M28.17,109.49
			c-2.13,1.89-4.29,4.05-5.48,6.48c-0.43,0.88-1.02,2.49-0.64,3.65c0.52,1.6,2.9,1.85,5.21,1.46c2.02-0.34,3.81-1.35,4.93-2.01
			c6.08-3.59,9.96-8.17,13.97-13.7c1.7-2.34,4.31-5.71,4.93-9.04c-0.04-0.16-0.12,0.02-0.27,0C42.69,99.73,34.4,103.96,28.17,109.49
			z"/>
		<path class="st2" d="M226.51,20.45c3.57-0.35,6.5,0.96,6.85,4.38c0.23,2.28-0.83,4.7-1.55,6.12c-1.77,3.47-5.14,7.13-9.22,8.13
			c-5.04,1.23-8.77-1.68-8.4-6.57c0.25-3.23,2.15-6.25,4.02-8.13C220.28,22.3,222.93,20.8,226.51,20.45z"/>
		<path class="st2" d="M276.28,49.77c-0.6-0.44-0.71-1.36-1.1-2.01c0.49-0.86,1.43-1.02,2.19-1.46c2.85-1.63,4.74-4.45,6.76-6.94
			c-3.72-0.36-7.85-1.11-8.22-4.57c-0.22-2.03,0.53-4.35,1.28-5.94c1.77-3.75,5.91-7.77,10.68-8.04c4.53-0.25,8.21,2.99,7.85,7.94
			c-0.2,2.76-1.55,5.24-2.83,7.31c-1.34,2.16-2.71,3.78-4.47,5.66C285.04,45.34,281.33,48.59,276.28,49.77z"/>
		<path class="st3" d="M361.57,27.85c0,0.46,0,0.91,0,1.37c-1.22,0-2.44,0-3.65,0c-0.21,3.2-0.03,6.79-0.09,10.14
			c-0.52,0-1.04,0-1.55,0c0-3.38,0-6.76,0-10.14c-1.25,0-2.5,0-3.74,0c-0.11-0.27-0.23-1.24,0.09-1.37
			C355.61,27.85,358.59,27.85,361.57,27.85z"/>
		<path class="st3" d="M365.41,27.85c1.16,3.19,2.2,6.5,3.29,9.77c1.16-3.22,2.28-6.49,3.38-9.77c0.7,0,1.4,0,2.1,0
			c0,3.84,0,7.67,0,11.51c-0.49,0-0.97,0-1.46,0c0-3.17,0-6.33,0-9.5c-1.24,3.05-2.26,6.33-3.38,9.5c-0.46,0-0.91,0-1.37,0
			c-1.14-3.19-2.21-6.43-3.29-9.68c-0.21,3.04-0.03,6.48-0.09,9.68c-0.49,0-0.97,0-1.46,0c0-3.84,0-7.67,0-11.51
			C363.88,27.85,364.65,27.85,365.41,27.85z"/>
		<path class="st2" d="M330.25,44.74c6.29-0.95,16.11-1.59,16.8,4.75c0.07,0.65,0,1.53-0.18,2.28c-0.75,3.16-3,5.71-5.21,7.76
			c-6.3,5.85-17.35,10.38-29.22,8.95c2.81,4.51,5.18,9.35,5.66,15.8c0.5,6.76-2.06,12.06-5.66,15.8c-3.31,3.44-8.51,6.2-15.25,6.39
			c-6.83,0.19-13.66-0.34-17.44-4.2c-2.2-2.25-3.09-5.78-2.92-9.59c0.51-11.61,9.98-15.15,16.35-20.91c-0.65-1.1-0.83-3.04-2.1-3.29
			c-0.98-0.19-2.34,0.71-3.29,1.19c-1.12,0.56-2.09,1.02-2.92,1.46c-2.26,1.2-4.03,2.2-5.94,2.92c-0.8-2.99,1.34-3.94,3.29-5.02
			c2.7-1.5,5.94-3.2,8.31-4.75c-0.03-6.6,1.14-12.25,3.29-17.53c1.88-4.63,5.13-9.92,10.32-10.41c1.6-0.15,2.53,0.01,3.74,0.37
			c3.44,1.01,6.02,3.5,6.3,7.4c0.27,3.75-1.46,7.18-2.83,9.41c-0.96,1.55-2.54,3.52-4.11,5.11c-0.51,0.52-1.37,1.18-1.37,1.64
			c0,0.72,1.44,1.67,2.65,1.83c2.55,0.33,5.28-0.14,7.58-0.55c6.24-1.1,13.86-3.39,16.53-7.76c1.73-2.85,0.28-5.95-1.46-7.85
			C330.84,45.58,330.16,45.32,330.25,44.74z M308.43,46.94c0.24-2.29-1.18-4.09-3.01-3.84c-5.75,0.81-4.91,8.83-2.37,12.88
			C304.91,53.92,308.04,50.59,308.43,46.94z M295.82,76.07c-2.39,1.16-4.02,2.63-5.84,4.11c-1.56,1.27-3.77,2.98-5.11,4.84
			c-2.9,4.01-2.72,9.3-0.09,12.6c1.85,2.32,4.7,3.94,9.04,3.56c2.44-0.21,5.01-1.51,6.48-3.84c3.1-4.89,1.6-13.06-0.73-17.44
			c-0.57-1.06-2.15-4.03-3.56-3.84C295.96,76.07,295.87,76.04,295.82,76.07z"/>
		<path class="st3" d="M262.86,116.7c3.56-0.33,6.07,1.76,7.12,3.93c3.16,6.49-1.99,15.49-9.31,14.98
			c-4.43-0.31-7.05-4.21-6.76-9.04c0.14-2.33,1.01-4.25,1.83-5.48C257.14,118.98,259.21,117.04,262.86,116.7z M257.65,128.39
			c0.31,2.44,2.69,4.97,5.66,3.93c4.54-1.6,5.8-13.11-0.73-12.6C259.05,119.99,257.13,124.26,257.65,128.39z"/>
		<path class="st3" d="M224.6,117.16c-0.23,1.08-0.5,2.11-0.82,3.1c-1.89-0.7-7.48-1.55-7.03,1.64c0.25,1.81,4.91,2.86,6.3,4.57
			c1.41,1.73,1.59,5.38-0.27,7.21c-2.26,2.22-7.33,2.31-11.23,1.28c0.37-1,0.66-2.08,1-3.1c2.16,0.82,8.13,1.74,8.13-1.37
			c0-2.48-4.61-3.38-6.03-4.84c-1.64-1.69-1.97-5.04-0.27-6.94C216.22,116.63,220.73,116.42,224.6,117.16z"/>
		<path class="st3" d="M139.95,125.1c1.11,0.52,2.09,0.82,2.74,1.64c1.89,2.42,0.17,6-1.73,7.12c-2.89,1.7-7.53,1.26-11.41,1.19
			c0.67-5.9,1.53-11.62,1.74-17.99c4.41,0.23,10.23-1.14,11.78,2.01C144.36,121.75,142.15,124.52,139.95,125.1z M138.48,124.01
			c1.16-0.68,1.84-3.08,0.46-4.02c-0.97-0.66-3.08-0.35-4.47-0.18c-0.03,1.67-0.25,3.16-0.37,4.75
			C135.65,124.49,137.15,124.79,138.48,124.01z M139.22,131.4c0.58-0.65,0.95-1.89,0.46-2.92c-0.75-1.55-3.53-1.49-5.84-1.37
			c-0.17,1.75-0.33,3.51-0.46,5.3C135.27,132.62,138.11,132.64,139.22,131.4z"/>
		<path class="st3" d="M281.85,128.21c-0.29,2.15-0.4,4.47-0.46,6.85c-1.28,0-2.56,0-3.84,0c0.7-5.88,1.56-11.59,1.73-17.99
			c4.48,0.03,9.28-0.77,11.32,1.74c1.94,2.38,0.41,6.3-1.37,7.67C287.34,127.94,284.94,128.22,281.85,128.21z M287.7,120.81
			c-0.67-1.27-3.19-1.41-5.11-1c-0.09,2.04-0.41,3.86-0.46,5.94C285.69,126.29,289.29,123.82,287.7,120.81z"/>
		<path class="st3" d="M161.68,117.07c0.72,6.49,2.96,11.47,3.65,17.99c-1.4,0-2.8,0-4.2,0c-0.06-1.86-0.43-3.41-0.64-5.11
			c-2.01,0-4.02,0-6.03,0c-0.74,1.57-1.46,3.17-1.83,5.11c-1.31,0-2.62,0-3.93,0c2.39-6.28,5.61-11.74,8.04-17.99
			C158.39,117.07,160.04,117.07,161.68,117.07z M155.38,127.29c1.55,0,3.1,0,4.66,0c-0.5-2.6-0.91-5.3-1.55-7.76
			C157.53,122.2,156.31,124.6,155.38,127.29z"/>
		<path class="st3" d="M177.75,117.07c-0.26,2.36-0.73,4.99-0.82,7.21c1.53-0.64,2.36-2.15,3.29-3.38c0.94-1.24,2.01-2.42,2.74-3.84
			c1.34,0,2.68,0,4.02,0c-1.85,2.93-4.33,5.23-6.85,7.49c2.65,2.86,4.55,6.47,6.03,10.5c-1.4,0-2.8,0-4.2,0
			c-0.74-2.51-1.9-4.89-3.29-6.94c-0.43-0.64-0.92-1.61-2.01-1.37c-0.39,2.59-0.5,5.46-0.64,8.31c-1.28,0-2.56,0-3.84,0
			c0.67-5.9,1.52-11.63,1.74-17.99C175.19,117.07,176.47,117.07,177.75,117.07z"/>
		<path class="st3" d="M205.79,117.07c-0.03,1.09-0.29,1.96-0.37,3.01c-2.32-0.08-4.58-0.23-7.03-0.18
			c-0.3,1.31-0.23,2.99-0.46,4.38c1.86,0.27,3.91-0.05,5.84,0c-0.01,1.03-0.19,1.88-0.27,2.83c-1.95,0.01-3.74-0.16-5.75-0.09
			c-0.35,1.54-0.36,3.42-0.55,5.11c2.5,0.28,5.15-0.08,7.67-0.09c-0.04,1.09-0.32,1.94-0.37,3.01c-3.74,0-7.49,0-11.23,0
			c0.74-5.84,1.61-11.54,1.73-17.99C198.6,117.07,202.19,117.07,205.79,117.07z"/>
		<path class="st3" d="M237.02,117.07c-0.31,2.37-0.6,4.76-0.91,7.12c2.01,0.21,4.41,0.03,6.57,0.09c0.47-2.12,0.41-4.76,0.55-7.21
			c1.28,0,2.56,0,3.84,0c-0.71,5.86-1.53,11.62-1.74,17.99c-1.28,0-2.56,0-3.84,0c0.29-2.63,0.67-5.17,0.91-7.85
			c-1.98-0.21-4.35-0.03-6.48-0.09c-0.42,2.44-0.46,5.26-0.64,7.94c-1.28,0-2.56,0-3.84,0c0.66-5.91,1.54-11.61,1.74-17.99
			C234.46,117.07,235.74,117.07,237.02,117.07z"/>
	</g>
</g>
<g id="Layer_2_copy" class="st0">
	<rect x="-4.63" y="-13.89" class="st4" width="443.93" height="183.26"/>
	<g class="st1">
		<defs>
			<text id="SVGID_1_" transform="matrix(1 0 0 1 133.6437 117.5758)" class="st5 st6">panaderia</text>
		</defs>
		<clipPath id="SVGID_2_">
			<use xlink:href="#SVGID_1_"  style="overflow:visible;"/>
		</clipPath>
		<g class="st7">
			<text transform="matrix(0.7526 0 0 1 1.9562 95.1894)" class="st8 st5 st9">Granada’s</text>
		</g>
	</g>
</g>
<g id="Layer_2">
	<rect x="-24.3" y="-9.07" class="st10" width="443.93" height="183.26"/>
	<g>
		<path class="st8" d="M65.17,87.45c-2.17,3.35-6.31,7.11-12.43,11.31c-1.27,11.26-4.09,19.96-8.46,26.12s-9.27,9.24-14.71,9.24
			c-2.61,0-4.66-0.8-6.14-2.41c-1.48-1.61-2.22-3.83-2.22-6.67c0-7.88,5.75-15.52,17.26-22.92c1.2-5.71,2.38-10.85,3.52-15.42
			c-2.01,3.85-4.92,7.26-8.74,10.22c-3.82,2.96-7.37,4.44-10.65,4.44c-5.35,0-9.8-3.08-13.35-9.24c-3.55-6.16-5.33-13.96-5.33-23.39
			c0-9.95,2.01-19.37,6.02-28.28c4.01-8.91,9.28-16.04,15.81-21.39c6.53-5.35,12.85-8.03,18.97-8.03c5.48,0,9.93,2.07,13.35,6.22
			c3.42,4.15,5.14,9.52,5.14,16.12c0,7.11-1.93,13.37-5.78,18.79c-3.85,5.42-8.28,8.13-13.28,8.13c-2.93,0-5.36-0.95-7.29-2.86
			c-1.93-1.9-2.89-4.25-2.89-7.05c0-1.69,0.37-3.2,1.12-4.51c0.75-1.31,1.62-1.97,2.6-1.97c0.96,0,1.43,0.74,1.43,2.22
			c0,1.31,0.37,2.33,1.1,3.05c0.73,0.72,1.58,1.08,2.53,1.08c2.55,0,4.99-2.32,7.33-6.95c2.34-4.63,3.51-9.6,3.51-14.89
			c0-3.72-0.91-6.76-2.72-9.11s-4.16-3.52-7.02-3.52c-4.3,0-8.46,2.54-12.49,7.62c-4.03,5.08-7.31,11.76-9.84,20.03
			c-2.53,8.27-3.8,16.14-3.8,23.58c0,6.86,1.11,12.31,3.34,16.35c2.23,4.04,5.19,6.06,8.88,6.06c6.24,0,12.21-5.86,17.91-17.59
			l8.98-1.71c1.11-0.21,1.67,0.15,1.67,1.07c0,0.42-0.43,2.24-1.29,5.46c-0.86,3.22-2.04,8.59-3.54,16.12
			c4.95-3.81,8.78-8.01,11.5-12.62V87.45z M37.36,108.52c-8.28,5.5-12.42,10.92-12.42,16.25c0,2.83,1.02,4.25,3.06,4.25
			C32.01,129.03,35.13,122.19,37.36,108.52z"/>
		<path class="st8" d="M100.86,87.45c-8,10.41-14.16,15.62-18.49,15.62c-1.94,0-3.58-1.09-4.92-3.27c-1.34-2.18-2.01-4.88-2.01-8.09
			c0-5.97,2.4-13.97,7.21-24c-2.36,1.61-4.94,2.73-7.74,3.36c-2.07,5.08-5.32,10.54-9.75,16.38h-1.1v-5.71
			c2.48-3.43,4.73-7.11,6.74-11.05c-2.74-1.61-4.11-4-4.11-7.17c0-3.26,0.84-6.74,2.51-10.44c1.67-3.7,3.97-5.55,6.9-5.55
			c2.48,0,3.73,1.69,3.73,5.08c0,2.67-0.72,6.48-2.15,11.43c5.29-0.76,9.91-6.14,13.86-16.12l4.35-0.25l-4.44,16.25
			c-1.85,6.86-3.04,11.52-3.58,14c-0.54,2.48-0.81,4.67-0.81,6.57c0,1.78,0.31,3.2,0.93,4.25c0.62,1.06,1.46,1.59,2.51,1.59
			c1.15,0,2.25-0.52,3.3-1.56c1.05-1.04,3.41-3.9,7.07-8.6V87.45z"/>
		<path class="st8" d="M151.88,87.45c-5.1,6.43-8.74,10.62-10.94,12.57s-4.3,2.92-6.31,2.92c-5.03,0-7.41-5.9-7.12-17.71
			c-3.19,6.05-6.12,10.52-8.82,13.4c-2.69,2.88-5.47,4.32-8.34,4.32c-2.8,0-5.18-1.75-7.14-5.24s-2.94-7.78-2.94-12.86
			c0-6.35,1.31-12.4,3.94-18.16c2.63-5.76,6-10.41,10.1-13.97s7.74-5.33,10.89-5.33c3.98,0,6.77,2.43,8.36,7.3l9.77-7.17h2.68
			l-4.21,18.6c-2.17,9.35-3.26,15.77-3.26,19.24c0,3.64,0.97,5.46,2.91,5.46c1.24,0,2.61-0.88,4.11-2.64c1.5-1.76,3.6-4.43,6.3-8.03
			V87.45z M116.91,90.94c3.18,0,6.19-3.61,9.01-10.82c2.82-7.22,4.23-13.87,4.23-19.97c0-2.37-0.4-4.22-1.19-5.55
			c-0.8-1.33-1.86-2-3.2-2c-3.19,0-6.2,3.6-9.05,10.79c-2.85,7.2-4.28,13.82-4.28,19.87c0,2.29,0.42,4.14,1.27,5.55
			C114.53,90.23,115.6,90.94,116.91,90.94z"/>
		<path class="st8" d="M198.75,87.45c-7.36,10.33-13.66,15.49-18.92,15.49c-2.13,0-3.85-1-5.16-2.98c-1.31-1.99-1.96-4.66-1.96-8
			c0-4.53,1.4-11.45,4.2-20.76c1.5-4.99,2.25-8.17,2.25-9.52c0-1.35-0.4-2.03-1.19-2.03c-0.45,0-1.04,0.3-1.77,0.89
			c-0.67,0.59-1.45,1.42-2.34,2.48c-0.8,0.97-1.69,2.16-2.68,3.55c-0.86,1.19-1.78,2.54-2.77,4.06l-2.68,4.13
			c-1.18,1.9-1.91,3.92-2.2,6.03c-0.48,3.6-0.8,6.9-0.96,9.9c-0.1,2.24-0.14,5.27-0.14,9.08l-10.56,3.3
			c-0.35-5.71-0.53-9.97-0.53-12.76c0-6.81,0.6-13.27,1.79-19.36c1.19-6.09,3.11-12.95,5.76-20.57l11.66-2.98
			c-2.45,8.76-4.06,15.66-4.83,20.7c5.22-7.75,9.36-13.11,12.43-16.09s5.8-4.48,8.18-4.48c1.62,0,2.97,0.81,4.05,2.44
			c1.08,1.63,1.62,3.67,1.62,6.12c0,4.06-1.37,10.74-4.11,20.05c-1.88,6.39-2.82,10.54-2.82,12.45c0,2.55,0.78,3.82,2.35,3.82
			c2.33,0,6.1-4.08,11.3-12.25V87.45z"/>
		<path class="st8" d="M249.73,87.45c-5.1,6.43-8.74,10.62-10.94,12.57c-2.2,1.95-4.3,2.92-6.31,2.92c-5.03,0-7.41-5.9-7.12-17.71
			c-3.19,6.05-6.12,10.52-8.81,13.4c-2.69,2.88-5.47,4.32-8.34,4.32c-2.8,0-5.18-1.75-7.14-5.24s-2.94-7.78-2.94-12.86
			c0-6.35,1.31-12.4,3.94-18.16c2.63-5.76,6-10.41,10.1-13.97c4.11-3.56,7.74-5.33,10.89-5.33c3.98,0,6.77,2.43,8.36,7.3l9.77-7.17
			h2.68l-4.21,18.6c-2.17,9.35-3.26,15.77-3.26,19.24c0,3.64,0.97,5.46,2.91,5.46c1.24,0,2.61-0.88,4.11-2.64
			c1.5-1.76,3.6-4.43,6.3-8.03V87.45z M214.76,90.94c3.18,0,6.19-3.61,9.01-10.82c2.82-7.22,4.23-13.87,4.23-19.97
			c0-2.37-0.4-4.22-1.19-5.55c-0.8-1.33-1.86-2-3.2-2c-3.19,0-6.2,3.6-9.05,10.79c-2.85,7.2-4.28,13.82-4.28,19.87
			c0,2.29,0.42,4.14,1.27,5.55C212.38,90.23,213.45,90.94,214.76,90.94z"/>
		<path class="st8" d="M300.71,87.45c-4.59,6.05-8.08,10.15-10.49,12.28c-2.41,2.14-4.53,3.21-6.38,3.21
			c-2.26,0-4.05-1.46-5.38-4.38c-1.32-2.92-2-7.2-2.03-12.82c-2.61,5.63-5.46,9.9-8.53,12.82c-3.07,2.92-5.85,4.38-8.34,4.38
			c-2.71,0-5.1-1.7-7.17-5.11c-2.07-3.41-3.11-7.4-3.11-11.97c0-9.44,2.59-18.19,7.76-26.25c5.18-8.06,10.74-12.09,16.7-12.09
			c1.66,0,2.95,0.32,3.89,0.95c0.94,0.63,1.97,1.71,3.08,3.24l6.83-37.96c5.58-1.73,9.34-2.6,11.29-2.6c0.64,0,0.96,0.34,0.96,1.02
			c0,0.47-0.8,4.85-2.39,13.14c-6.37,33.18-9.55,53.2-9.55,60.05c0,1.61,0.25,2.9,0.76,3.87c0.51,0.97,1.18,1.46,2,1.46
			c2.04,0,5.39-3.51,10.06-10.54V87.45z M266.17,90.81c3.12,0,6.04-3.51,8.74-10.54c2.71-7.02,4.06-13.61,4.06-19.74
			c0-2.5-0.42-4.49-1.27-5.97c-0.84-1.48-1.95-2.22-3.32-2.22c-2.96,0-5.83,3.67-8.6,11.01c-2.77,7.34-4.16,13.98-4.16,19.9
			c0,2.33,0.41,4.17,1.22,5.52C263.66,90.14,264.77,90.81,266.17,90.81z"/>
		<path class="st8" d="M351.69,87.45c-5.1,6.43-8.74,10.62-10.94,12.57c-2.2,1.95-4.3,2.92-6.31,2.92c-5.03,0-7.41-5.9-7.12-17.71
			c-3.19,6.05-6.12,10.52-8.81,13.4c-2.69,2.88-5.47,4.32-8.34,4.32c-2.8,0-5.18-1.75-7.14-5.24s-2.94-7.78-2.94-12.86
			c0-6.35,1.31-12.4,3.94-18.16c2.63-5.76,6-10.41,10.1-13.97c4.11-3.56,7.74-5.33,10.89-5.33c3.98,0,6.77,2.43,8.36,7.3l9.77-7.17
			h2.68l-4.21,18.6c-2.17,9.35-3.26,15.77-3.26,19.24c0,3.64,0.97,5.46,2.91,5.46c1.24,0,2.61-0.88,4.11-2.64
			c1.5-1.76,3.6-4.43,6.3-8.03V87.45z M316.72,90.94c3.18,0,6.19-3.61,9.01-10.82c2.82-7.22,4.23-13.87,4.23-19.97
			c0-2.37-0.4-4.22-1.19-5.55c-0.8-1.33-1.86-2-3.2-2c-3.19,0-6.2,3.6-9.05,10.79c-2.85,7.2-4.28,13.82-4.28,19.87
			c0,2.29,0.42,4.14,1.27,5.55C314.34,90.23,315.41,90.94,316.72,90.94z"/>
		<path class="st11" d="M362.73,32.26c2.9,2.02,4.35,4.87,4.35,8.53c0,3.04-0.92,5.79-2.76,8.28c-1.84,2.48-4.55,4.55-8.12,6.22
			l-0.38-2.2c2.07-1.49,3.6-2.85,4.61-4.07c1.01-1.22,1.51-2.67,1.51-4.35c0-2.14-0.92-3.65-2.77-4.52
			c-0.56-0.24-0.84-0.49-0.84-0.76c0-0.22,0.32-0.78,0.95-1.7C360.87,35.42,362.03,33.61,362.73,32.26z"/>
		<path class="st8" d="M378.11,50.25c2.2-0.76,4.41-1.39,6.64-1.87c2.23-0.49,3.57-0.73,4.01-0.73c0.32,0,0.48,0.17,0.48,0.51
			c0,0.63-0.13,1.29-0.38,1.97c-0.51,1.95-0.76,3.81-0.76,5.58c0.01,2.2,0.96,5.21,2.87,9.02s2.86,7.35,2.86,10.6
			c0,6.48-2.33,12.72-7,18.73c-4.67,6.01-9.5,9.01-14.5,9.01c-2.17,0-4.14-0.76-5.92-2.29c-1.78-1.52-2.68-3.15-2.68-4.89
			c0-1.02,0.88-2.94,2.65-5.78c1.77-2.84,3.03-4.25,3.8-4.25c1.02,0,1.93,1.74,2.72,5.21c0.8,3.47,2.17,5.21,4.11,5.21
			c1.94,0,3.77-1.2,5.47-3.59c1.7-2.39,2.56-4.96,2.56-7.72c0-2.67-1.08-6.22-3.25-10.66c-2.17-4.44-3.6-8.17-4.3-11.17
			c-3.7,7.91-8.38,16.02-14.05,24.31h-1.1v-5.71C370.15,70.69,375.4,60.19,378.11,50.25z"/>
	</g>
	<g>
		<path class="st11" d="M156.43,109.64c-1.16-1.43-2.67-2.14-4.53-2.14c-1.44,0-2.74,0.38-3.92,1.15c-1.17,0.76-2.42,1.94-3.75,3.54
			l1.07-4.75l-6.24,1.14c-2.26,5.39-5.14,9.97-8.63,13.74v2.48h0.63c0.85-0.73,2.48-2.69,4.91-5.88
			c-2.02,8.84-3.69,17.55-4.99,26.16l7.01-1.24c0.38-3.51,1.24-8.18,2.56-14.02c0.86,0.74,1.56,1.21,2.1,1.41
			c0.53,0.2,1.26,0.31,2.18,0.31c3.29,0,6.34-1.7,9.15-5.1c2.8-3.39,4.21-7.12,4.21-11.19C158.19,112.94,157.6,111.06,156.43,109.64
			z M149.15,125.09c-1.43,2.83-3.07,4.24-4.93,4.24c-1.16,0-2.22-0.79-3.18-2.38l1.7-7.17c0.51-2.13,0.97-3.63,1.38-4.48
			c0.4-0.86,1-1.61,1.79-2.25c0.79-0.65,1.54-0.97,2.26-0.97c0.92,0,1.67,0.44,2.25,1.31c0.58,0.88,0.87,2.02,0.87,3.44
			C151.29,119.51,150.57,122.27,149.15,125.09z"/>
		<path class="st11" d="M191.16,121.66c-1.55,1.55-2.76,2.71-3.61,3.46c-0.87,0.76-1.66,1.14-2.37,1.14c-1.12,0-1.69-0.79-1.69-2.37
			c0-1.51,0.63-4.29,1.89-8.36l2.43-8.09h-1.55l-5.64,3.12c-0.92-2.11-2.53-3.17-4.83-3.17c-1.82,0-3.92,0.77-6.29,2.32
			c-2.37,1.54-4.32,3.57-5.84,6.07c-1.51,2.5-2.27,5.13-2.27,7.89c0,2.21,0.56,4.07,1.69,5.59c1.14,1.52,2.51,2.28,4.13,2.28
			c1.66,0,3.26-0.63,4.81-1.88c1.56-1.25,3.26-3.19,5.1-5.82c-0.17,5.13,1.2,7.7,4.11,7.7c1.16,0,2.37-0.43,3.64-1.27
			c1.23-0.82,3.24-2.55,6.04-5.2c0.09-0.09,0.18-0.18,0.28-0.27v-3.17L191.16,121.66z M176.19,121.61c-1.63,3.14-3.36,4.71-5.2,4.71
			c-0.75,0-1.38-0.31-1.86-0.92c-0.49-0.62-0.73-1.43-0.73-2.42c0-2.63,0.82-5.51,2.47-8.64c1.64-3.12,3.39-4.69,5.23-4.69
			c0.77,0,1.38,0.29,1.84,0.87c0.46,0.58,0.69,1.39,0.69,2.42C178.63,115.59,177.82,118.48,176.19,121.61z"/>
		<path class="st11" d="M218.01,121.93c-2.88,3.35-4.97,5.02-6.28,5.02c-0.9,0-1.36-0.55-1.36-1.66c0-0.83,0.55-2.63,1.63-5.41
			c1.58-4.04,2.37-6.95,2.37-8.71c0-1.07-0.31-1.96-0.93-2.66c-0.63-0.71-1.41-1.07-2.34-1.07c-1.38,0-2.96,0.65-4.73,1.95
			c-1.77,1.3-4.16,3.63-7.18,7c0.44-2.19,1.37-5.19,2.79-9l-6.73,1.3c-1.53,3.31-2.64,6.29-3.33,8.94c-0.34,1.31-0.6,2.65-0.76,4.03
			c-0.14,1.11-0.23,2.25-0.25,3.41c-0.02,0.32-0.02,0.64-0.02,0.97c0,1.22,0.1,3.07,0.3,5.55l6.1-1.43c0-1.66,0.02-2.98,0.08-3.95
			c0.09-1.31,0.28-2.74,0.55-4.31c0.17-0.92,0.59-1.79,1.27-2.62l1.55-1.79c0.57-0.66,1.1-1.25,1.6-1.77
			c0.57-0.6,1.08-1.12,1.54-1.54c0.52-0.46,0.97-0.82,1.35-1.08c0.43-0.26,0.77-0.38,1.03-0.38c0.46,0,0.69,0.29,0.69,0.88
			c0,0.59-0.44,1.97-1.3,4.14c-1.62,4.05-2.43,7.05-2.43,9.02c0,1.46,0.38,2.61,1.13,3.48c0.76,0.86,1.75,1.3,2.98,1.3
			c2.98,0,6.52-2.15,10.66-6.46c0.09-0.09,0.18-0.18,0.27-0.28v-3.17C218.17,121.73,218.09,121.83,218.01,121.93z"/>
		<path class="st11" d="M247.64,121.69c-1.53,1.53-2.72,2.68-3.58,3.43c-0.86,0.76-1.65,1.14-2.37,1.14c-1.12,0-1.68-0.79-1.68-2.37
			c0-1.51,0.62-4.29,1.88-8.36l2.43-8.09h-1.55l-5.64,3.12c-0.92-2.11-2.53-3.17-4.82-3.17c-1.83,0-3.92,0.77-6.3,2.32
			c-2.37,1.54-4.32,3.57-5.83,6.07c-1.2,1.97-1.92,4.02-2.17,6.15c-0.08,0.58-0.11,1.15-0.11,1.74c0,0.49,0.03,0.96,0.09,1.41
			c0.19,1.6,0.73,2.99,1.61,4.18c1.13,1.52,2.5,2.28,4.12,2.28c1.66,0,3.26-0.63,4.82-1.88c1.55-1.25,3.25-3.19,5.09-5.82
			c-0.17,5.13,1.2,7.7,4.11,7.7c1.16,0,2.37-0.43,3.64-1.27c1.24-0.83,3.29-2.59,6.13-5.29c0.06-0.06,0.13-0.12,0.19-0.18v-3.17
			C247.68,121.65,247.66,121.67,247.64,121.69z M232.7,121.61c-1.62,3.14-3.36,4.71-5.2,4.71c-0.75,0-1.37-0.31-1.86-0.92
			c-0.49-0.62-0.73-1.43-0.73-2.42c0-2.63,0.82-5.51,2.47-8.64c1.65-3.12,3.39-4.69,5.23-4.69c0.77,0,1.39,0.29,1.85,0.87
			c0.46,0.58,0.69,1.39,0.69,2.42C235.15,115.59,234.33,118.48,232.7,121.61z"/>
		<path class="st11" d="M276.99,121.81c-0.01,0.01-0.01,0.02-0.01,0.02c-2.61,2.91-4.49,4.38-5.64,4.38c-0.48,0-0.87-0.21-1.16-0.63
			c-0.3-0.43-0.44-0.99-0.44-1.69c0-2.98,1.84-11.68,5.51-26.1c0.09-0.34,0.17-0.66,0.24-0.96l-0.48-5.11
			c-1.2,4.96-6.14,9.14-7.68,10.34l-1.72,7.21c-0.64-0.67-1.23-1.14-1.78-1.41c-0.54-0.28-1.29-0.42-2.25-0.42
			c-3.44,0-6.65,1.76-9.64,5.26c-2.39,2.81-3.82,5.8-4.3,8.99c-0.12,0.79-0.18,1.6-0.18,2.42c0,0.3,0.01,0.59,0.05,0.87
			c0.14,1.63,0.72,3.07,1.74,4.33c1.19,1.49,2.57,2.23,4.14,2.23c1.43,0,3.04-0.64,4.81-1.91c1.78-1.27,3.42-3.13,4.93-5.57
			c0.02,2.44,0.41,4.3,1.17,5.57c0.76,1.27,1.8,1.91,3.11,1.91c1.06,0,2.29-0.47,3.68-1.4c1.38-0.93,3.39-2.7,6.03-5.31l0.03-0.03
			v-3.17C277.09,121.69,277.04,121.75,276.99,121.81z M262.25,121.68c-1.57,3.06-3.25,4.58-5.05,4.58c-0.81,0-1.45-0.29-1.92-0.88
			c-0.47-0.59-0.71-1.39-0.71-2.4c0-2.57,0.8-5.46,2.4-8.65c1.61-3.19,3.26-4.79,4.97-4.79c0.79,0,1.43,0.32,1.92,0.97
			c0.49,0.64,0.73,1.51,0.73,2.59C264.59,115.77,263.81,118.63,262.25,121.68z"/>
		<path class="st11" d="M292.76,125.97c-1.1,0.66-2.26,0.98-3.47,0.98c-3.11,0-5.03-1.79-5.77-5.38c8.1-2.37,12.14-5.46,12.14-9.27
			c0-1.43-0.51-2.59-1.54-3.48c-1.03-0.88-2.4-1.32-4.11-1.32c-3.3,0-6.3,1.58-9,4.73c-2.47,2.89-3.81,6.08-4.02,9.58
			c-0.01,0.01-0.01,0.02-0.01,0.02c-0.02,0.33-0.03,0.66-0.03,0.99c0,0.71,0.06,1.38,0.17,2.01c0.3,1.7,1.02,3.13,2.14,4.3
			c1.53,1.6,3.55,2.41,6.05,2.41c2.25,0,4.3-0.55,6.16-1.65c1.86-1.09,3.95-2.79,6.29-5.09v-3.17
			C295.53,123.87,293.87,125.32,292.76,125.97z M284.96,112.48c1.1-1.85,2.26-2.77,3.47-2.77c1.29,0,1.93,0.88,1.93,2.65
			c0,3.57-2.35,6.01-7.06,7.34C283.3,116.74,283.85,114.33,284.96,112.48z"/>
		<path class="st11" d="M314.32,125.37c-0.61,0.45-1.25,0.67-1.91,0.67c-0.6,0-1.09-0.23-1.45-0.69c-0.36-0.46-0.53-1.07-0.53-1.84
			c0-0.83,0.15-1.78,0.46-2.86c0.32-1.08,1.01-3.1,2.07-6.09l2.57-7.06l-2.51,0.11c-2.28,4.34-4.95,6.68-8,7.01
			c0.83-2.15,1.24-3.81,1.24-4.97c0-1.47-0.72-2.21-2.15-2.21c-1.7,0-3.02,0.81-3.99,2.42s-1.45,3.12-1.45,4.54
			c0,1.38,0.79,2.42,2.37,3.12c-0.99,1.46-2.08,2.84-3.28,4.14c-0.19,0.22-0.4,0.44-0.61,0.66v2.48h0.64
			c2.55-2.54,4.43-4.91,5.63-7.12c1.62-0.27,3.11-0.76,4.47-1.46c-2.78,4.36-4.17,7.84-4.17,10.43c0,1.4,0.39,2.57,1.16,3.52
			c0.77,0.95,1.72,1.42,2.84,1.42c2.45,0,5.92-2.17,10.41-6.53c0.09-0.08,0.18-0.17,0.27-0.26v-3.17
			C316.28,123.67,314.92,124.92,314.32,125.37z"/>
		<path class="st11" d="M331.78,121.87c-1.47,1.61-2.53,2.66-3.23,3.17c-0.72,0.52-1.45,0.78-2.16,0.78c-0.41,0-0.74-0.19-1.01-0.56
			c-0.27-0.38-0.4-0.87-0.4-1.48c0-1.53,0.57-4.07,1.71-7.64l2.76-8.64h-0.33l-7.01,1.46c-1.96,5.14-3.2,9.46-3.7,12.94
			c-0.17,1.14-0.26,2.2-0.27,3.16v0.18c0,1.82,0.4,3.34,1.21,4.54c0.81,1.21,1.8,1.81,2.98,1.81c2.09,0,5.23-2.18,9.42-6.54
			c0.08-0.08,0.16-0.17,0.24-0.25v-3.17C331.92,121.71,331.84,121.79,331.78,121.87z"/>
		<path class="st11" d="M328.26,102.38c-0.56-0.45-1.09-1.3-1.59-2.55c-1.29,0.84-2.64,1.44-4.04,1.81
			c0.27,1.11,0.91,2.06,1.91,2.87c2.06,1.66,4.08,1.25,6.09-1.23C329.68,103.19,328.89,102.89,328.26,102.38z"/>
		<path class="st11" d="M357.81,125.12c-0.87,0.76-1.66,1.14-2.37,1.14c-1.13,0-1.69-0.79-1.69-2.37c0-1.51,0.63-4.29,1.88-8.36
			l2.44-8.09h-1.55l-5.64,3.12c-0.92-2.11-2.53-3.17-4.83-3.17c-1.82,0-3.92,0.77-6.29,2.32c-2.37,1.54-4.32,3.57-5.84,6.07
			c-1.18,1.95-1.9,3.98-2.15,6.09c-0.08,0.6-0.12,1.19-0.12,1.8c0,0.48,0.03,0.94,0.09,1.38c0.18,1.62,0.71,3.02,1.6,4.21
			c1.13,1.52,2.51,2.28,4.13,2.28c1.65,0,3.26-0.63,4.81-1.88c1.56-1.25,3.26-3.19,5.1-5.82c-0.17,5.13,1.2,7.7,4.11,7.7
			c1.16,0,2.37-0.43,3.64-1.27c1.27-0.85,3.38-2.67,6.32-5.47v-3.17C359.89,123.19,358.67,124.36,357.81,125.12z M346.45,121.61
			c-1.63,3.14-3.36,4.71-5.2,4.71c-0.76,0-1.38-0.31-1.86-0.92c-0.49-0.62-0.73-1.43-0.73-2.42c0-2.63,0.82-5.51,2.47-8.64
			c1.64-3.12,3.39-4.69,5.22-4.69c0.78,0,1.39,0.29,1.85,0.87c0.46,0.58,0.69,1.39,0.69,2.42
			C348.89,115.59,348.08,118.48,346.45,121.61z"/>
	</g>
	<g id="Layer_4" class="st0">
	</g>
</g>
</svg>
